<svg width="41" height="40" viewBox="0 0 41 40" fill="none" xmlns="http://www.w3.org/2000/svg">
<path d="M20.5643 39.9998H20.3639C17.615 39.9789 14.8979 39.4097 12.3717 38.3256C9.84556 37.2415 7.56109 35.6642 5.65209 33.6862C2.11213 29.9006 0.0998546 24.9379 0.00361794 19.7559C-0.0926187 14.574 1.734 9.54001 5.13096 5.62558C7.31945 3.17297 10.0707 1.28837 13.1483 0.133713C13.5074 -0.00446836 13.8987 -0.0363681 14.2754 0.0418233C14.6521 0.120015 14.9984 0.304992 15.2729 0.574666C15.5271 0.83387 15.7061 1.15724 15.7908 1.51026C15.8755 1.86327 15.8628 2.23266 15.7539 2.579C14.6554 5.58736 14.4378 8.84663 15.1265 11.9743C15.8153 15.102 17.3818 17.9684 19.6423 20.2371C21.9239 22.4907 24.7971 24.0519 27.9293 24.7401C31.0614 25.4282 34.3245 25.2152 37.3405 24.1255C37.6995 23.9992 38.0871 23.9776 38.4579 24.0634C38.8287 24.1492 39.1674 24.3388 39.4344 24.61C39.7014 24.8812 39.8856 25.2228 39.9656 25.5949C40.0456 25.967 40.018 26.3542 39.886 26.7111C38.8621 29.4445 37.2626 31.9258 35.1959 33.9868C33.2734 35.9036 30.9911 37.4215 28.4801 38.4534C25.9692 39.4853 23.279 40.0109 20.5643 39.9998Z" fill="white"/>
</svg>
