<svg width="20" height="20" viewBox="0 0 20 20" fill="none" xmlns="http://www.w3.org/2000/svg">
<rect width="20" height="20" fill="#1E1E1E"/>
<path d="M3.24999 10C3.24999 8.57504 4.40832 7.41671 5.83332 7.41671H9.16666V5.83337H5.83332C4.72825 5.83337 3.66845 6.27236 2.88704 7.05376C2.10564 7.83516 1.66666 8.89497 1.66666 10C1.66666 11.1051 2.10564 12.1649 2.88704 12.9463C3.66845 13.7277 4.72825 14.1667 5.83332 14.1667H9.16666V12.5834H5.83332C4.40832 12.5834 3.24999 11.425 3.24999 10ZM6.66666 10.8334H13.3333V9.16671H6.66666V10.8334ZM14.1667 5.83337H10.8333V7.41671H14.1667C15.5917 7.41671 16.75 8.57504 16.75 10C16.75 11.425 15.5917 12.5834 14.1667 12.5834H10.8333V14.1667H14.1667C15.2717 14.1667 16.3315 13.7277 17.1129 12.9463C17.8943 12.1649 18.3333 11.1051 18.3333 10C18.3333 8.89497 17.8943 7.83516 17.1129 7.05376C16.3315 6.27236 15.2717 5.83337 14.1667 5.83337V5.83337Z" fill="white"/>
</svg>
