<svg width="57" height="61" viewBox="0 0 57 61" fill="none" xmlns="http://www.w3.org/2000/svg">
<path d="M9.42827 49H1.18963L13.7429 12.6364H23.6506L36.1861 49H27.9474L18.8388 20.946H18.5547L9.42827 49ZM8.91335 34.7067H28.3736V40.7081H8.91335V34.7067ZM54.6964 42.2884L49.8136 42.6612C49.7189 42.1996 49.4348 41.7616 48.9613 41.3473C48.4878 40.933 47.8013 40.7259 46.9016 40.7259C46.2388 40.7259 45.641 40.8679 45.1083 41.152C44.5756 41.4242 44.3093 41.803 44.3093 42.2884C44.3093 42.6908 44.475 43.0163 44.8065 43.2649C45.1379 43.5017 45.712 43.7029 46.5288 43.8686L49.8136 44.5433C51.4944 44.8748 52.8084 45.437 53.7553 46.2301C54.7141 47.0114 55.1935 48.1122 55.1935 49.5327C55.1935 50.7401 54.8325 51.7995 54.1104 52.7109C53.3884 53.6224 52.4 54.3326 51.1452 54.8416C49.8905 55.3506 48.4701 55.6051 46.8839 55.6051C44.4573 55.6051 42.5101 55.0961 41.0423 54.0781C39.5863 53.072 38.7399 51.6989 38.5032 49.9588L43.7766 49.6037C43.9305 50.2902 44.2797 50.8052 44.8242 51.1484C45.3687 51.4917 46.0553 51.6634 46.8839 51.6634C47.7006 51.6634 48.3694 51.5154 48.8903 51.2195C49.4229 50.9235 49.6893 50.5388 49.6893 50.0653C49.6893 49.6866 49.5058 49.367 49.1388 49.1065C48.7837 48.8461 48.2392 48.639 47.5053 48.4851L44.3271 47.8459C42.5041 47.4908 41.1606 46.8752 40.2965 45.9993C39.4324 45.1115 39.0004 43.9751 39.0004 42.5902C39.0004 40.8146 39.7165 39.4179 41.1488 38.3999C42.5929 37.37 44.4869 36.8551 46.8306 36.8551C49.2454 36.8551 51.1097 37.3641 52.4237 38.3821C53.7494 39.3883 54.507 40.6903 54.6964 42.2884Z" fill="white"/>
</svg>
