<svg width="219" height="56" viewBox="0 0 219 56" fill="none" xmlns="http://www.w3.org/2000/svg">
<path d="M62 45V17.6562H73.7188C79.7734 17.6562 83.0286 20.7031 83.4844 26.7969C83.1068 29.8177 81.8047 31.3281 79.5781 31.3281C81.8047 31.3281 83.1068 32.8581 83.4844 35.918C83.0677 41.9727 79.8125 45 73.7188 45H62ZM69.8125 25.4688V28.3984H73.7188C75.0208 28.3984 75.6719 27.8841 75.6719 26.8555C75.6719 25.931 75.0208 25.4688 73.7188 25.4688H69.8125ZM69.8125 34.3555V37.1875H73.7188C75.0208 37.1875 75.6719 36.7253 75.6719 35.8008C75.6719 34.8372 75.0208 34.3555 73.7188 34.3555H69.8125ZM85.4375 17.6562H93.25V27.4219H103.016V17.6562H110.828V45H103.016V35.2344H93.25V45H85.4375V17.6562ZM120.594 17.6562V45H112.781V17.6562H120.594ZM138.113 17.6562H145.926V31.3281C145.926 40.4427 142.02 45 134.207 45C126.98 45 123.094 41.1003 122.547 33.3008H130.438C130.828 35.8919 132.085 37.1875 134.207 37.1875C136.811 37.1875 138.113 35.2344 138.113 31.3281V17.6562ZM169.383 17.6562V25.4688H155.711V27.4219H163.523V35.2344H155.711V37.1875H169.383V45H147.898V17.6562H169.383ZM192.82 17.6562V25.4688H179.148V27.4219H186.961V35.2344H179.148V37.1875H192.82V45H171.336V17.6562H192.82ZM209.344 25.4688V45H201.531V25.4688H194.773V17.6562H216.258V25.4688H209.344Z" fill="white"/>
<path d="M28.35 -8.34465e-07C32.2233 -8.34465e-07 35.8633 0.746666 39.27 2.24C42.6767 3.68666 45.64 5.69333 48.16 8.26C50.68 10.78 52.6633 13.7433 54.11 17.15C55.6033 20.5567 56.35 24.1733 56.35 28V56H42.49V28C42.49 26.0867 42.1167 24.29 41.37 22.61C40.6233 20.8833 39.62 19.39 38.36 18.13C37.1 16.87 35.6067 15.8667 33.88 15.12C32.1533 14.3733 30.31 14 28.35 14C26.4367 14 24.6167 14.3733 22.89 15.12C21.21 15.8667 19.74 16.87 18.48 18.13C17.22 19.39 16.2167 20.8833 15.47 22.61C14.7233 24.29 14.35 26.0867 14.35 28C14.35 29.9133 14.7233 31.7333 15.47 33.46C16.2167 35.14 17.22 36.61 18.48 37.87C19.74 39.13 21.21 40.1333 22.89 40.88C24.6167 41.6267 26.4367 42 28.35 42H42.35L28.35 56C24.4767 55.9533 20.8367 55.2067 17.43 53.76C14.07 52.2667 11.13 50.26 8.61 47.74C6.09 45.22 4.10667 42.28 2.66 38.92C1.21333 35.5133 0.49 31.8733 0.49 28C0.49 24.1733 1.21333 20.5567 2.66 17.15C4.10667 13.7433 6.09 10.78 8.61 8.26C11.13 5.69333 14.07 3.68666 17.43 2.24C20.8367 0.746666 24.4767 -8.34465e-07 28.35 -8.34465e-07Z" fill="white"/>
</svg>
