<svg width="363" height="103" viewBox="0 0 363 103" fill="none" xmlns="http://www.w3.org/2000/svg">
<path d="M145.989 83.1276V48.9479H160.638C168.206 48.9479 172.275 52.7565 172.845 60.3737C172.373 64.1497 170.745 66.0377 167.962 66.0377C170.745 66.0377 172.373 67.9502 172.845 71.775C172.324 79.3434 168.255 83.1276 160.638 83.1276H145.989ZM155.755 58.7135V62.3756H160.638C162.265 62.3756 163.079 61.7327 163.079 60.4469C163.079 59.2913 162.265 58.7135 160.638 58.7135H155.755ZM155.755 69.8219V73.3619H160.638C162.265 73.3619 163.079 72.7841 163.079 71.6285C163.079 70.4241 162.265 69.8219 160.638 69.8219H155.755ZM175.286 48.9479H185.052V61.1549H197.259V48.9479H207.024V83.1276H197.259V70.9205H185.052V83.1276H175.286V48.9479ZM219.231 48.9479V83.1276H209.466V48.9479H219.231ZM241.131 48.9479H250.896V66.0377C250.896 77.4309 246.014 83.1276 236.248 83.1276C227.215 83.1276 222.356 78.2529 221.673 68.5035H231.536C232.024 71.7425 233.595 73.3619 236.248 73.3619C239.503 73.3619 241.131 70.9205 241.131 66.0377V48.9479ZM280.218 48.9479V58.7135H263.128V61.1549H272.893V70.9205H263.128V73.3619H280.218V83.1276H253.362V48.9479H280.218ZM309.515 48.9479V58.7135H292.425V61.1549H302.19V70.9205H292.425V73.3619H309.515V83.1276H282.659V48.9479H309.515ZM330.169 58.7135V83.1276H320.403V58.7135H311.956V48.9479H338.811V58.7135H330.169Z" fill="white"/>
<path d="M98.8281 73.418L93.9453 83.1836H74.4141L108.594 14.8242L142.773 83.1836H123.242L118.359 73.418H98.8281ZM111.67 53.8867L108.594 47.0996L105.42 53.8867H111.67Z" fill="white"/>
</svg>
