<svg width="192" height="192" viewBox="0 0 192 192" fill="none" xmlns="http://www.w3.org/2000/svg">
<circle cx="96" cy="96" r="96" fill="white"/>
<path d="M21 96C24.9782 96 28.7936 94.2879 31.6066 91.2405C34.4196 88.193 36 84.0598 36 79.75V47.25C36 42.9402 37.5804 38.807 40.3934 35.7595C43.2064 32.712 47.0218 31 51 31H141C144.978 31 148.794 32.712 151.607 35.7595C154.42 38.807 156 42.9402 156 47.25V79.75C156 84.0598 157.58 88.193 160.393 91.2405C163.206 94.2879 167.022 96 171 96" fill="#563D7C"/>
<path d="M21 96C24.9782 96 28.7936 97.7121 31.6066 100.76C34.4196 103.807 36 107.94 36 112.25V144.75C36 149.06 37.5804 153.193 40.3934 156.24C43.2064 159.288 47.0218 161 51 161H141C144.978 161 148.794 159.288 151.607 156.24C154.42 153.193 156 149.06 156 144.75V112.25C156 107.94 157.58 103.807 160.393 100.76C163.206 97.7121 167.022 96 171 96" fill="#563D7C"/>
<path d="M21 96C24.9782 96 28.7936 97.7121 31.6066 100.76C34.4196 103.807 36 107.94 36 112.25V144.75C36 149.06 37.5804 153.193 40.3934 156.24C43.2064 159.288 47.0218 161 51 161H141C144.978 161 148.794 159.288 151.607 156.24C154.42 153.193 156 149.06 156 144.75V112.25C156 107.94 157.58 103.807 160.393 100.76C163.206 97.7121 167.022 96 171 96" stroke="#3E2F2F" stroke-width="2" stroke-linecap="round" stroke-linejoin="round"/>
<path d="M73.5 128.5V63.5H99.75C103.728 63.5 107.544 65.2121 110.357 68.2595C113.17 71.307 114.75 75.4402 114.75 79.75C114.75 84.0598 113.17 88.193 110.357 91.2405C107.544 94.2879 103.728 96 99.75 96H73.5H103.5C107.478 96 111.294 97.7121 114.107 100.76C116.92 103.807 118.5 107.94 118.5 112.25C118.5 116.56 116.92 120.693 114.107 123.74C111.294 126.788 107.478 128.5 103.5 128.5H73.5Z" stroke="white" stroke-width="4" stroke-linecap="round" stroke-linejoin="round"/>
</svg>
